# xmcd
#
# Track frame offsets:
#	150
#	19425
#	64960
#	94425
#
# Disc length: 1521 seconds
#
# Revision: 1
# Processed by: cddbd v1.4PL0 Copyright (c) Steve Scherf et al.
# Submitted via: audiograbber 1.82.00
#
DISCID=3705ef04
DTITLE=Yearwood, Trisha - You're Where I Belong (Maxi-Single)
DYEAR=2000
DGENRE=Country
TTITLE0=You're Where I Belong
TTITLE1=You're Where I Belong (Soul Solution Club Mix)
TTITLE2=You're Where I Belong (Soul Solution Dub)
TTITLE3=You're Where I Belong (Soul Solution Radio)
EXTD=
EXTT0=
EXTT1=
EXTT2=
EXTT3=
PLAYORDER=
